<?xml version="1.0" standalone="no"?>
<!DOCTYPE svg PUBLIC "-//W3C//DTD SVG 20010904//EN"
 "http://www.w3.org/TR/2001/REC-SVG-20010904/DTD/svg10.dtd">
<svg version="1.0" xmlns="http://www.w3.org/2000/svg"
 width="500.000000pt" height="500.000000pt" viewBox="0 0 500.000000 500.000000"
 preserveAspectRatio="xMidYMid meet">

<g transform="translate(0.000000,500.000000) scale(0.100000,-0.100000)"
fill="#000000" stroke="none">
<path d="M1655 3620 c-10 -11 -15 -20 -11 -20 4 0 0 -10 -8 -22 -9 -12 -16
-32 -15 -43 0 -14 2 -16 6 -5 7 18 45 46 56 42 5 -1 6 2 2 8 -3 6 -11 8 -16 5
-5 -4 -9 1 -9 9 0 8 5 18 12 22 6 4 8 3 5 -3 -12 -19 46 -22 107 -6 32 8 67
12 79 9 12 -3 16 -1 11 4 -14 14 -79 25 -71 13 5 -8 -5 -8 -34 -1 -29 8 -43 8
-52 -1 -14 -14 -30 -15 -22 -1 11 18 -22 10 -40 -10z m82 -16 c-3 -3 -12 -4
-19 -1 -8 3 -5 6 6 6 11 1 17 -2 13 -5z"/>
<path d="M3150 3628 c-25 -11 -34 -14 -57 -16 -22 -3 -14 -19 12 -24 13 -3 22
-1 19 3 -2 4 4 13 15 19 17 9 19 8 15 -5 -5 -11 -2 -13 10 -9 9 3 14 10 11 14
-3 4 2 11 11 14 11 4 15 2 11 -7 -4 -10 2 -13 19 -9 25 4 34 22 12 22 -7 0
-22 2 -33 5 -11 2 -31 -1 -45 -7z"/>
<path d="M3267 3633 c-22 -6 -12 -23 14 -23 10 0 19 7 19 15 0 15 -2 16 -33 8z"/>
<path d="M3309 3623 c-1 -10 -1 -22 0 -27 1 -5 -6 -5 -16 -2 -14 6 -15 4 -6
-5 13 -13 37 -3 27 12 -3 6 5 8 21 5 26 -5 27 -5 10 14 -22 25 -35 25 -36 3z"/>
<path d="M1897 3613 c-4 -3 1 -15 10 -26 10 -10 17 -22 16 -26 -2 -3 9 -6 25
-6 20 0 27 5 27 20 0 15 -6 19 -23 18 -13 -2 -21 1 -18 6 3 5 -1 12 -10 15
-19 7 -19 7 -27 -1z m58 -42 c-9 -8 -36 -10 -30 -2 2 4 11 8 20 8 8 0 13 -3
10 -6z"/>
<path d="M1870 3596 c0 -2 8 -10 18 -17 15 -13 16 -12 3 4 -13 16 -21 21 -21
13z"/>
<path d="M3034 3588 c-5 -8 -2 -9 10 -5 11 4 15 3 10 -4 -3 -6 -16 -8 -29 -5
-15 4 -31 -2 -49 -19 -14 -13 -26 -22 -26 -19 0 2 -11 -3 -26 -12 -14 -9 -23
-22 -20 -29 2 -6 -2 -12 -10 -12 -7 0 -10 5 -7 11 3 6 -2 3 -13 -6 -14 -14
-15 -20 -6 -30 9 -9 15 -9 24 0 7 7 20 12 29 12 18 0 33 26 24 41 -4 5 2 6 11
2 11 -4 15 -3 10 5 -7 12 29 36 43 27 5 -3 11 -1 13 4 1 4 14 12 27 16 18 6
22 4 15 -6 -6 -11 -5 -12 7 -2 8 6 18 11 22 11 5 0 11 3 13 6 2 3 1 4 -2 1 -4
-2 -16 2 -28 10 -25 18 -33 19 -42 3z"/>
<path d="M3365 3540 c0 -26 3 -46 8 -43 4 2 7 22 7 43 0 21 -3 41 -7 43 -5 3
-8 -17 -8 -43z"/>
<path d="M1846 3568 c3 -5 10 -6 15 -3 13 9 11 12 -6 12 -8 0 -12 -4 -9 -9z"/>
<path d="M1990 3570 c0 -5 6 -10 13 -10 8 0 7 -4 -3 -10 -11 -7 -11 -10 -2
-10 7 0 10 -4 7 -10 -11 -17 7 -11 21 8 9 11 13 13 14 4 0 -7 4 -11 9 -7 17
10 24 -18 8 -30 -9 -7 -14 -15 -10 -18 3 -4 12 1 19 11 11 14 15 14 22 4 5 -8
12 -13 16 -13 18 3 20 0 6 -10 -12 -8 -11 -9 5 -5 15 4 33 -7 67 -40 27 -25
46 -49 43 -53 -2 -4 2 -8 10 -8 8 0 15 4 15 8 0 12 -118 117 -140 124 -11 3
-20 10 -20 15 0 12 -60 44 -60 33 0 -5 -5 0 -11 10 -11 18 -29 23 -29 7z"/>
<path d="M1634 3509 c-3 -6 -1 -16 4 -21 8 -8 11 -5 9 11 -1 24 -3 25 -13 10z"/>
<path d="M2015 3510 c-13 -6 -15 -9 -5 -9 8 0 22 4 30 9 18 12 2 12 -25 0z"/>
<path d="M3285 3470 c-3 -6 1 -7 9 -4 18 7 21 14 7 14 -6 0 -13 -4 -16 -10z"/>
<path d="M3310 3457 c-12 -21 -12 -21 6 -7 10 8 20 15 22 16 2 1 -1 4 -5 7 -5
3 -15 -4 -23 -16z"/>
<path d="M3351 3464 c0 -11 3 -14 6 -6 3 7 2 16 -1 19 -3 4 -6 -2 -5 -13z"/>
<path d="M1646 3458 c3 -5 10 -6 15 -3 13 9 11 12 -6 12 -8 0 -12 -4 -9 -9z"/>
<path d="M2799 3423 c-75 -80 -96 -107 -78 -100 9 3 22 0 29 -6 10 -10 10 -8
2 8 -8 15 -6 25 5 40 15 19 15 19 10 -10 -4 -16 -4 -24 -1 -17 3 6 9 10 14 7
4 -3 14 3 21 13 13 15 12 16 -3 3 -11 -8 -18 -9 -18 -3 0 6 5 14 10 17 6 3 10
15 10 26 0 10 4 19 10 19 5 0 7 -7 4 -15 -4 -8 -1 -15 6 -15 6 0 8 5 5 10 -3
6 -1 10 6 10 9 0 9 3 0 14 -9 11 -9 16 0 22 8 5 9 3 4 -6 -6 -10 -4 -12 8 -7
17 7 41 -15 29 -28 -4 -5 -1 -5 5 -1 10 5 7 15 -9 37 -12 16 -22 29 -23 29 0
0 -21 -21 -46 -47z"/>
<path d="M2140 3441 c0 -5 7 -11 14 -14 10 -4 13 -1 9 9 -6 15 -23 19 -23 5z"/>
<path d="M1675 3420 c9 -30 13 -35 21 -27 3 3 -2 16 -11 29 l-17 23 7 -25z"/>
<path d="M3335 3429 c-4 -6 -5 -12 -2 -15 2 -3 7 2 10 11 7 17 1 20 -8 4z"/>
<path d="M3300 3379 c0 -5 5 -7 10 -4 6 3 10 8 10 11 0 2 -4 4 -10 4 -5 0 -10
-5 -10 -11z"/>
<path d="M1700 3373 c0 -19 21 -27 33 -13 9 10 9 11 -2 5 -8 -4 -17 -2 -22 6
-6 9 -9 10 -9 2z"/>
<path d="M2259 3351 c7 -5 11 -14 7 -20 -5 -7 -1 -9 9 -5 12 5 13 9 4 20 -6 8
-17 14 -23 14 -6 0 -5 -4 3 -9z"/>
<path d="M3286 3343 c-6 -14 -5 -15 5 -6 7 7 10 15 7 18 -3 3 -9 -2 -12 -12z"/>
<path d="M1737 3325 c6 -11 8 -25 6 -32 -2 -6 0 -14 5 -17 13 -8 6 45 -8 58
-10 8 -10 6 -3 -9z"/>
<path d="M2280 3316 c0 -2 7 -7 16 -10 8 -3 12 -2 9 4 -6 10 -25 14 -25 6z"/>
<path d="M1722 3280 c-2 -43 13 -72 21 -41 3 12 1 21 -3 21 -5 0 -11 12 -13
28 -3 23 -4 22 -5 -8z"/>
<path d="M2676 3270 c-31 -47 -33 -60 -7 -36 19 17 19 17 14 -3 -3 -12 -9 -21
-14 -21 -5 0 -9 -5 -9 -12 0 -6 9 -3 21 7 11 11 19 30 18 45 -2 42 0 52 13 44
7 -4 8 -3 4 4 -10 17 -10 16 -40 -28z"/>
<path d="M2290 3281 c0 -6 4 -13 10 -16 6 -3 7 1 4 9 -7 18 -14 21 -14 7z"/>
<path d="M2333 3245 c0 -8 4 -12 9 -9 5 3 6 10 3 15 -9 13 -12 11 -12 -6z"/>
<path d="M3267 3235 c-4 -8 -2 -17 3 -20 6 -4 10 3 10 14 0 25 -6 27 -13 6z"/>
<path d="M2353 3218 c3 -9 1 -19 -6 -22 -8 -3 -8 -5 2 -5 11 -1 11 -4 0 -18
-11 -15 -11 -16 1 -6 10 9 17 10 27 1 11 -8 12 -7 7 6 -3 9 -10 16 -16 16 -5
0 -7 4 -4 8 2 4 0 14 -6 22 -8 12 -9 12 -5 -2z"/>
<path d="M2635 3200 c-3 -5 -1 -10 4 -10 6 0 11 5 11 10 0 6 -2 10 -4 10 -3 0
-8 -4 -11 -10z"/>
<path d="M2626 3164 c-18 -17 -21 -28 -6 -19 16 10 12 -4 -12 -37 -16 -21 -19
-32 -11 -35 8 -3 9 -12 3 -28 -6 -17 -5 -27 5 -35 19 -16 29 5 14 32 -15 27
-15 28 3 40 9 7 7 8 -7 4 -19 -6 -19 -5 -3 7 10 8 15 17 11 20 -3 4 7 8 23 8
17 1 22 3 11 6 -12 3 -15 11 -11 29 7 28 2 30 -20 8z m-6 -144 c0 -5 -2 -10
-4 -10 -3 0 -8 5 -11 10 -3 6 -1 10 4 10 6 0 11 -4 11 -10z"/>
<path d="M3236 3142 c-3 -5 1 -9 9 -9 8 0 15 4 15 9 0 4 -4 8 -9 8 -6 0 -12
-4 -15 -8z"/>
<path d="M1750 3116 c0 -2 8 -10 18 -17 15 -13 16 -12 3 4 -13 16 -21 21 -21
13z"/>
<path d="M3230 3095 c-7 -9 -8 -15 -2 -15 5 0 12 7 16 15 3 8 4 15 2 15 -2 0
-9 -7 -16 -15z"/>
<path d="M2340 3081 c0 -6 4 -13 10 -16 6 -3 7 1 4 9 -7 18 -14 21 -14 7z"/>
<path d="M2394 3062 c3 -6 0 -13 -6 -15 -8 -3 -5 -6 5 -6 11 -1 17 -7 14 -13
-2 -7 -10 -12 -16 -10 -7 1 -10 -2 -6 -7 3 -6 12 -7 21 -4 19 7 15 55 -5 61
-8 3 -11 0 -7 -6z"/>
<path d="M2637 3064 c-13 -13 -7 -26 8 -20 8 3 15 0 15 -7 0 -8 25 -12 84 -12
50 0 79 3 70 8 -8 5 -44 7 -80 5 -67 -3 -72 -1 -51 22 10 12 9 12 -4 2 -10 -8
-19 -8 -25 -2 -6 6 -13 7 -17 4z"/>
<path d="M2235 3039 c-14 -5 -5 -8 32 -8 28 -1 58 -4 67 -7 9 -3 16 -2 16 3 0
5 -19 10 -42 12 -23 1 -44 3 -47 5 -3 2 -15 0 -26 -5z"/>
<path d="M1822 3031 c-11 -7 -11 -9 0 -14 9 -3 15 1 15 9 0 8 -1 14 -1 14 -1
0 -7 -4 -14 -9z"/>
<path d="M2125 3020 c-3 -5 -1 -10 4 -10 6 0 11 5 11 10 0 6 -2 10 -4 10 -3 0
-8 -4 -11 -10z"/>
<path d="M2188 3023 c7 -3 16 -2 19 1 4 3 -2 6 -13 5 -11 0 -14 -3 -6 -6z"/>
<path d="M2860 3024 c0 -7 52 -25 57 -20 2 2 -10 8 -26 14 -17 6 -31 9 -31 6z"/>
<path d="M1870 2996 c0 -2 7 -7 16 -10 8 -3 12 -2 9 4 -6 10 -25 14 -25 6z"/>
<path d="M1990 2990 c-20 -6 -21 -8 -5 -8 11 0 31 4 45 8 20 6 21 8 5 8 -11 0
-31 -4 -45 -8z"/>
<path d="M2961 2996 c2 -2 18 -6 34 -10 22 -5 26 -4 15 4 -14 9 -59 15 -49 6z"/>
<path d="M1610 2281 c0 -5 9 -12 20 -16 28 -9 32 -47 28 -247 -3 -184 -7 -199
-53 -219 -15 -6 -11 -8 19 -6 30 1 44 9 60 30 19 26 21 45 26 225 3 108 9 203
13 210 5 6 15 12 23 12 8 0 14 5 14 10 0 6 -32 10 -75 10 -41 0 -75 -4 -75 -9z"/>
<path d="M3029 2254 c-15 -18 -2 -47 24 -52 22 -5 42 35 26 54 -15 18 -33 18
-50 -2z"/>
<path d="M2576 2155 c-20 -7 -43 -18 -51 -25 -13 -10 -15 -9 -15 9 0 17 -6 21
-32 21 -45 0 -66 -14 -42 -28 21 -12 30 -100 19 -187 -5 -45 -11 -58 -28 -65
-16 -6 0 -9 53 -9 61 0 71 2 53 11 -22 10 -23 17 -23 113 0 114 4 122 64 132
27 4 42 1 56 -12 18 -16 20 -31 20 -122 0 -98 -1 -104 -22 -113 -17 -6 -6 -9
45 -9 l67 -1 -20 20 c-17 17 -20 33 -20 108 0 105 13 125 82 126 56 1 68 -22
68 -131 0 -70 -3 -86 -20 -103 l-20 -20 68 1 c37 0 60 3 52 6 -26 10 -30 26
-30 123 0 75 -4 101 -19 126 -30 50 -98 52 -157 5 l-26 -21 -19 24 c-23 30
-57 36 -103 21z"/>
<path d="M3055 2162 c-11 -1 -31 -5 -44 -8 l-24 -5 22 -15 c19 -14 21 -24 21
-124 0 -101 -2 -110 -22 -124 -21 -15 -19 -16 47 -16 62 0 67 1 49 14 -17 13
-20 31 -24 148 -5 126 -6 133 -25 130z"/>
<path d="M3235 2162 c-11 -1 -31 -5 -44 -8 l-24 -5 22 -15 c19 -14 21 -24 21
-124 0 -101 -2 -110 -22 -124 -21 -15 -19 -16 47 -16 66 0 68 1 47 16 -20 14
-22 23 -22 114 l0 99 30 16 c31 16 68 19 86 7 46 -30 46 -215 1 -244 -7 -4 16
-8 51 -8 l62 0 -20 20 c-17 17 -20 33 -20 124 0 85 -3 108 -18 126 -25 30 -87
31 -135 1 l-36 -22 -3 23 c-2 17 -9 23 -23 20z"/>
<path d="M1850 2140 c-11 -11 -20 -27 -20 -35 0 -24 36 -17 48 10 10 21 19 25
51 25 45 0 61 -18 61 -68 0 -27 -3 -29 -64 -41 -94 -19 -136 -70 -105 -128 25
-47 79 -55 132 -19 34 23 36 24 42 6 8 -24 30 -32 60 -20 30 11 33 30 5 30
-19 0 -20 7 -20 104 0 96 -2 105 -25 130 -21 23 -32 26 -85 26 -47 0 -64 -4
-80 -20z m140 -162 c0 -54 -22 -78 -70 -78 -75 0 -73 87 3 109 61 18 67 15 67
-31z"/>
<path d="M2166 2134 c-14 -15 -26 -38 -26 -51 0 -28 52 -83 79 -83 9 0 31 -9
49 -20 55 -34 33 -100 -35 -100 -29 0 -49 14 -78 55 -14 19 -14 18 -15 -11 0
-42 20 -56 83 -58 80 -2 127 33 127 94 0 24 -46 62 -103 84 -26 10 -49 26 -52
37 -23 71 76 93 113 25 l17 -31 3 30 c5 39 -19 55 -84 55 -42 0 -56 -5 -78
-26z"/>
<path d="M1590 1672 c0 -5 9 -12 20 -15 19 -5 20 -14 20 -180 0 -171 -1 -176
-22 -192 -22 -16 -16 -16 102 -13 140 3 170 14 221 78 80 100 54 246 -54 302
-35 19 -63 23 -164 26 -77 3 -123 0 -123 -6z m248 -36 c48 -25 75 -86 76 -173
0 -58 -4 -78 -20 -100 -34 -46 -82 -73 -130 -73 -78 0 -74 -9 -74 192 l0 181
58 -6 c32 -2 73 -12 90 -21z"/>
<path d="M3380 1655 c-17 -21 -5 -45 24 -45 25 0 39 20 30 45 -8 19 -38 19
-54 0z"/>
<path d="M3020 1620 c0 -5 -16 -25 -35 -45 -30 -29 -32 -35 -16 -35 18 0 19
-9 22 -126 4 -110 6 -127 23 -140 28 -20 59 -17 90 7 32 25 29 34 -7 18 -48
-22 -57 -2 -57 127 l0 114 65 0 65 0 0 -120 c0 -107 2 -122 20 -140 26 -26 60
-25 94 1 33 26 28 34 -9 17 -44 -20 -55 6 -55 134 l0 108 46 0 c27 0 43 4 39
10 -3 6 -24 10 -46 10 -38 0 -39 1 -39 35 0 40 -16 46 -30 11 -14 -38 -42 -51
-99 -48 -51 4 -51 4 -51 38 0 19 -4 34 -10 34 -5 0 -10 -4 -10 -10z"/>
<path d="M2114 1551 c-58 -27 -78 -62 -79 -141 0 -52 5 -71 23 -97 26 -37 80
-58 127 -49 34 7 101 54 90 64 -2 3 -14 -3 -25 -13 -26 -24 -103 -25 -128 -2
-22 20 -46 92 -36 109 5 7 37 9 100 5 l94 -5 0 28 c0 46 -17 79 -52 100 -40
24 -60 24 -114 1z m94 -25 c7 -7 15 -29 19 -49 l6 -37 -70 0 c-38 0 -72 3 -76
6 -10 11 15 64 41 84 26 21 55 19 80 -4z"/>
<path d="M2713 1550 c-136 -69 -79 -302 70 -286 88 10 146 82 134 166 -15 114
-108 169 -204 120z m86 -11 c42 -15 61 -55 61 -128 0 -73 -14 -106 -49 -121
-58 -24 -109 21 -118 103 -9 84 14 133 73 157 1 0 15 -5 33 -11z"/>
<path d="M3378 1557 c-42 -12 -48 -22 -18 -30 18 -5 20 -14 20 -115 0 -103 -2
-112 -22 -126 -21 -15 -19 -16 45 -16 l67 0 -21 21 c-20 20 -21 30 -17 147 2
78 -1 126 -7 127 -5 1 -27 -2 -47 -8z"/>
<path d="M2350 1518 c1 -37 2 -40 12 -23 19 35 40 45 95 45 29 0 53 -3 53 -6
0 -7 -26 -45 -112 -160 -37 -51 -68 -95 -68 -98 0 -3 53 -6 119 -6 115 0 119
1 125 23 3 12 6 33 5 47 0 24 -1 23 -17 -8 -18 -38 -37 -44 -111 -40 l-53 3
37 55 c21 30 62 87 91 127 30 39 54 74 54 77 0 3 -52 6 -115 6 l-115 0 0 -42z"/>
</g>
</svg>
